<svg width="84" height="84" viewBox="0 0 84 84" fill="none" xmlns="http://www.w3.org/2000/svg">
<g clip-path="url(#clip0_1303_276)">
<g filter="url(#filter0_d_1303_276)">
<path d="M20 29.2533C20 22.0628 20 18.4676 22.2338 16.2338C24.4676 14 28.0628 14 35.2533 14H48.7467C55.9372 14 59.5324 14 61.7662 16.2338C64 18.4676 64 22.0628 64 29.2533V42.7467C64 49.9372 64 53.5324 61.7662 55.7662C59.5324 58 55.9372 58 48.7467 58H35.2533C28.0628 58 24.4676 58 22.2338 55.7662C20 53.5324 20 49.9372 20 42.7467V29.2533Z" fill="#3F3D64" fill-opacity="0.1"/>
<path d="M20 29.2533C20 22.0628 20 18.4676 22.2338 16.2338C24.4676 14 28.0628 14 35.2533 14H48.7467C55.9372 14 59.5324 14 61.7662 16.2338C64 18.4676 64 22.0628 64 29.2533V42.7467C64 49.9372 64 53.5324 61.7662 55.7662C59.5324 58 55.9372 58 48.7467 58H35.2533C28.0628 58 24.4676 58 22.2338 55.7662C20 53.5324 20 49.9372 20 42.7467V29.2533Z" stroke="url(#paint0_linear_1303_276)" stroke-width="0.946989"/>
<path d="M42 53.75C51.8031 53.75 59.75 45.8031 59.75 36C59.75 26.1969 51.8031 18.25 42 18.25C32.1969 18.25 24.25 26.1969 24.25 36C24.25 45.8031 32.1969 53.75 42 53.75Z" fill="#22212F" stroke="#373646" stroke-width="0.5"/>
<path d="M32 15V57" stroke="#373646" stroke-width="0.5"/>
<path d="M52 15V57" stroke="#373646" stroke-width="0.5"/>
<path d="M63 26H21" stroke="#373646" stroke-width="0.5"/>
<path d="M63 46H21" stroke="#373646" stroke-width="0.5"/>
</g>
<path d="M41.1667 32.6666H36.1667C35.2462 32.6666 34.5 33.4128 34.5 34.3333V42.6666C34.5 43.5871 35.2462 44.3333 36.1667 44.3333H41.1667C42.0871 44.3333 42.8333 43.5871 42.8333 42.6666V34.3333C42.8333 33.4128 42.0871 32.6666 41.1667 32.6666Z" stroke="white" stroke-width="0.625" stroke-linecap="round" stroke-linejoin="round"/>
<path d="M36.1666 29.3333C36.1666 28.8913 36.3422 28.4673 36.6548 28.1548C36.9673 27.8422 37.3913 27.6666 37.8333 27.6666H47.8333C48.2753 27.6666 48.6992 27.8422 49.0118 28.1548C49.3244 28.4673 49.5 28.8913 49.5 29.3333V42.6666C49.5 43.1087 49.3244 43.5326 49.0118 43.8451C48.6992 44.1577 48.2753 44.3333 47.8333 44.3333H45.8333" stroke="white" stroke-width="0.625" stroke-linecap="round" stroke-linejoin="round"/>
<path d="M38.6666 41H38.675" stroke="white" stroke-width="0.625" stroke-linecap="round" stroke-linejoin="round"/>
</g>
<defs>
<filter id="filter0_d_1303_276" x="0.586729" y="0.268659" width="82.8265" height="82.8265" filterUnits="userSpaceOnUse" color-interpolation-filters="sRGB">
<feFlood flood-opacity="0" result="BackgroundImageFix"/>
<feColorMatrix in="SourceAlpha" type="matrix" values="0 0 0 0 0 0 0 0 0 0 0 0 0 0 0 0 0 0 127 0" result="hardAlpha"/>
<feOffset dy="5.68193"/>
<feGaussianBlur stdDeviation="9.46988"/>
<feComposite in2="hardAlpha" operator="out"/>
<feColorMatrix type="matrix" values="0 0 0 0 0.109804 0 0 0 0 0.682353 0 0 0 0 1 0 0 0 0.2 0"/>
<feBlend mode="normal" in2="BackgroundImageFix" result="effect1_dropShadow_1303_276"/>
<feBlend mode="normal" in="SourceGraphic" in2="effect1_dropShadow_1303_276" result="shape"/>
</filter>
<linearGradient id="paint0_linear_1303_276" x1="23.6667" y1="14" x2="44.2917" y2="63.5" gradientUnits="userSpaceOnUse">
<stop stop-color="#2662FC"/>
<stop offset="0.359375" stop-color="white"/>
<stop offset="1" stop-color="#0DA8FF"/>
</linearGradient>
<clipPath id="clip0_1303_276">
<rect width="84" height="84" fill="white"/>
</clipPath>
</defs>
</svg>
