<svg xmlns="http://www.w3.org/2000/svg" width="84" height="84" viewBox="0 0 84 84" fill="none">
  <g filter="url(#filter0_d_127_609)">
    <g filter="url(#filter1_b_127_609)">
      <path d="M20 29.2533C20 22.0628 20 18.4676 22.2338 16.2338C24.4676 14 28.0628 14 35.2533 14H48.7467C55.9372 14 59.5324 14 61.7662 16.2338C64 18.4676 64 22.0628 64 29.2533V42.7467C64 49.9372 64 53.5324 61.7662 55.7662C59.5324 58 55.9372 58 48.7467 58H35.2533C28.0628 58 24.4676 58 22.2338 55.7662C20 53.5324 20 49.9372 20 42.7467V29.2533Z" fill="#3F3D64" fill-opacity="0.1"/>
      <path d="M20 29.2533C20 22.0628 20 18.4676 22.2338 16.2338C24.4676 14 28.0628 14 35.2533 14H48.7467C55.9372 14 59.5324 14 61.7662 16.2338C64 18.4676 64 22.0628 64 29.2533V42.7467C64 49.9372 64 53.5324 61.7662 55.7662C59.5324 58 55.9372 58 48.7467 58H35.2533C28.0628 58 24.4676 58 22.2338 55.7662C20 53.5324 20 49.9372 20 42.7467V29.2533Z" stroke="url(#paint0_linear_127_609)" stroke-width="0.946989"/>
    </g>
    <circle cx="42" cy="36" r="17.75" fill="#22212F" stroke="#373646" stroke-width="0.5"/>
    <path d="M32 15V57" stroke="#373646" stroke-width="0.5"/>
    <path d="M52 15V57" stroke="#373646" stroke-width="0.5"/>
    <path d="M63 26L21 26" stroke="#373646" stroke-width="0.5"/>
    <path d="M63 46L21 46" stroke="#373646" stroke-width="0.5"/>
    <path fill-rule="evenodd" clip-rule="evenodd" d="M45.0638 27.4564C44.4735 28.1381 44.1163 29.0272 44.1163 29.9996C44.1163 30.9721 44.4735 31.8612 45.0638 32.5429L46.1456 31.4611C45.8287 31.0589 45.6396 30.5514 45.6396 29.9996C45.6396 29.4479 45.8287 28.9404 46.1455 28.5382L45.0638 27.4564ZM45.4598 27.0605L46.5415 28.1422C46.9437 27.8254 47.4513 27.6363 48.003 27.6363C48.5547 27.6363 49.0622 27.8254 49.4644 28.1422L50.5462 27.0605C49.8645 26.4701 48.9755 26.113 48.003 26.113C47.0305 26.113 46.1414 26.4701 45.4598 27.0605ZM51.1458 26.8539C50.3412 26.0501 49.2302 25.553 48.003 25.553C45.5471 25.553 43.5563 27.5438 43.5563 29.9996C43.5563 31.2269 44.0535 32.338 44.8574 33.1426L44.8587 33.1439L44.8602 33.1454C45.6647 33.9492 46.7758 34.4463 48.003 34.4463C50.4588 34.4463 52.4496 32.4555 52.4496 29.9996C52.4496 28.7724 51.9525 27.6612 51.1485 26.8567L51.1472 26.8554L51.1458 26.8539ZM50.9421 27.4564L49.8604 28.5382C50.1772 28.9404 50.3663 29.4479 50.3663 29.9996C50.3663 30.5514 50.1773 31.0589 49.8604 31.4611L50.9422 32.5428C51.5325 31.8612 51.8896 30.9721 51.8896 29.9996C51.8896 29.0271 51.5325 28.1381 50.9421 27.4564ZM50.5462 32.9388L49.4644 31.8571C49.0623 32.1739 48.5547 32.363 48.003 32.363C47.4513 32.363 46.9437 32.1739 46.5415 31.8571L45.4598 32.9388C46.1414 33.5291 47.0305 33.8863 48.003 33.8863C48.9755 33.8863 49.8645 33.5291 50.5462 32.9388ZM48.003 28.1963C47.007 28.1963 46.1996 29.0037 46.1996 29.9996C46.1996 30.9956 47.007 31.803 48.003 31.803C48.9989 31.803 49.8063 30.9956 49.8063 29.9996C49.8063 29.0037 48.9989 28.1963 48.003 28.1963ZM35.9696 26.2487C35.9895 26.2433 36.0106 26.2433 36.0305 26.2487C36.033 26.2496 36.0436 26.2542 36.0679 26.2704C36.1035 26.2942 36.1486 26.3291 36.2252 26.3886L39.0511 28.5866C39.2534 28.7439 39.3077 28.7895 39.3455 28.8406C39.3841 28.8927 39.4128 28.9515 39.4303 29.0139C39.4474 29.0752 39.45 29.1459 39.45 29.4023V32.4168C39.45 32.6551 39.4498 32.8158 39.4397 32.9397C39.4298 33.0601 39.4122 33.1191 39.3919 33.1589C39.3408 33.2593 39.2592 33.3409 39.1588 33.392C39.119 33.4123 39.06 33.4299 38.9396 33.4398C38.8157 33.4499 38.655 33.4501 38.4167 33.4501H33.5834C33.3451 33.4501 33.1844 33.4499 33.0605 33.4398C32.9401 33.4299 32.881 33.4123 32.8412 33.392C32.7409 33.3409 32.6593 33.2593 32.6082 33.1589C32.5879 33.1191 32.5702 33.0601 32.5604 32.9397C32.5503 32.8158 32.55 32.6551 32.55 32.4168V29.4023C32.55 29.1459 32.5526 29.0752 32.5698 29.0139C32.5873 28.9515 32.616 28.8927 32.6546 28.8406C32.6924 28.7895 32.7467 28.7439 32.949 28.5866L35.7749 26.3886C35.8515 26.3291 35.8966 26.2942 35.9322 26.2704C35.9565 26.2542 35.9671 26.2496 35.9696 26.2487ZM36.1873 25.6696C36.0647 25.6364 35.9354 25.6364 35.8127 25.6696C35.6715 25.7078 35.5512 25.8019 35.4358 25.8922L35.4066 25.915L32.5806 28.113L32.553 28.1344C32.3909 28.2603 32.2653 28.3579 32.1722 28.4838C32.0902 28.5946 32.0291 28.7195 31.992 28.8522C31.9498 29.003 31.9499 29.1621 31.95 29.3673L31.95 29.4023L31.95 32.4291C31.95 32.652 31.95 32.8373 31.9624 32.9886C31.9753 33.1461 32.003 33.2929 32.0736 33.4313C32.1822 33.6446 32.3556 33.818 32.5689 33.9266C32.7073 33.9972 32.8541 34.0249 33.0116 34.0378C33.1628 34.0501 33.3482 34.0501 33.5711 34.0501H33.5711H38.429H38.429C38.6519 34.0501 38.8372 34.0501 38.9885 34.0378C39.146 34.0249 39.2928 33.9972 39.4312 33.9266C39.6445 33.818 39.8179 33.6446 39.9265 33.4313C39.9971 33.2929 40.0248 33.1461 40.0377 32.9886C40.05 32.8373 40.05 32.652 40.05 32.4291V29.4023L40.0501 29.3673C40.0502 29.1621 40.0503 29.003 40.0081 28.8522C39.9709 28.7195 39.9099 28.5946 39.8279 28.4838C39.7348 28.3579 39.6091 28.2603 39.447 28.1344L39.4195 28.113L36.5935 25.915L36.5643 25.8922C36.4489 25.8019 36.3286 25.7078 36.1873 25.6696ZM34.6764 30.7587C34.6351 30.5982 34.4716 30.5016 34.3111 30.5429C34.1506 30.5842 34.0541 30.7478 34.0954 30.9083C34.3137 31.7564 35.0832 32.3835 36 32.3835C36.9168 32.3835 37.6864 31.7564 37.9047 30.9083C37.946 30.7478 37.8494 30.5842 37.689 30.5429C37.5285 30.5016 37.365 30.5982 37.3237 30.7587C37.1719 31.3482 36.6364 31.7835 36 31.7835C35.3636 31.7835 34.8281 31.3482 34.6764 30.7587ZM44.1363 40.95C44.1363 39.7613 45.0351 38.55 46.29 38.55C47.0183 38.55 47.4925 38.9149 47.7746 39.2461C47.8316 39.313 47.9151 39.3516 48.003 39.3516C48.0909 39.3516 48.1743 39.313 48.2313 39.2461C48.5135 38.9149 48.9876 38.55 49.7159 38.55C50.9708 38.55 51.8696 39.7613 51.8696 40.95C51.8696 41.5312 51.6441 42.1033 51.2799 42.6462C50.9159 43.1888 50.4242 43.6859 49.9207 44.1103C49.4184 44.5337 48.9124 44.8778 48.5274 45.116C48.3351 45.235 48.1743 45.3267 48.0608 45.388L48.0275 45.4058L48.003 45.4188L47.977 45.405L47.9452 45.388C47.8317 45.3267 47.6708 45.235 47.4785 45.116C47.0935 44.8778 46.5875 44.5337 46.0852 44.1103C45.5817 43.6859 45.09 43.1888 44.7261 42.6462C44.3619 42.1033 44.1363 41.5312 44.1363 40.95ZM46.29 37.95C44.6097 37.95 43.5363 39.5325 43.5363 40.95C43.5363 41.6884 43.8223 42.376 44.2278 42.9805C44.6335 43.5853 45.1696 44.1233 45.6985 44.5691C46.2286 45.0158 46.7597 45.3768 47.1628 45.6263C47.3646 45.7511 47.5357 45.8488 47.6601 45.916C47.7221 45.9495 47.774 45.9762 47.8133 45.9952C47.8325 46.0045 47.8514 46.0132 47.8682 46.0203C47.8763 46.0237 47.8876 46.0282 47.9001 46.0325L47.9126 46.0365C47.9173 46.0379 47.9227 46.0394 47.9286 46.0409L47.9288 46.0409C47.9366 46.0429 47.9656 46.05 48.003 46.05C48.0403 46.05 48.0693 46.0429 48.0772 46.0409L48.0773 46.0409C48.0896 46.0379 48.0996 46.0346 48.1058 46.0325C48.1184 46.0282 48.1297 46.0237 48.1377 46.0203C48.1545 46.0132 48.1734 46.0045 48.1926 45.9952C48.2319 45.9762 48.2838 45.9495 48.3458 45.916C48.4703 45.8488 48.6413 45.7511 48.8431 45.6263C49.2463 45.3768 49.7774 45.0158 50.3074 44.5691C50.8363 44.1233 51.3724 43.5853 51.7782 42.9805C52.1836 42.376 52.4696 41.6884 52.4696 40.95C52.4696 39.5325 51.3962 37.95 49.7159 37.95C48.9376 37.95 48.3771 38.273 48.003 38.619C47.6289 38.273 47.0684 37.95 46.29 37.95ZM32.55 41.7917C32.55 40.0014 34.0014 38.55 35.7917 38.55C37.582 38.55 39.0334 40.0014 39.0334 41.7917C39.0334 42.666 38.6872 43.4595 38.1245 44.0425C38.1087 44.0532 38.0936 44.0655 38.0796 44.0795C38.0656 44.0936 38.0533 44.1086 38.0426 44.1245C37.4595 44.6872 36.666 45.0333 35.7917 45.0333C34.0014 45.0333 32.55 43.582 32.55 41.7917ZM39.6334 41.7917C39.6334 42.7445 39.2865 43.6164 38.7121 44.2878L39.9622 45.5379C40.0793 45.655 40.0793 45.845 39.9622 45.9622C39.845 46.0793 39.6551 46.0793 39.5379 45.9621L38.2878 44.712C37.6164 45.2864 36.7446 45.6334 35.7917 45.6334C33.67 45.6334 31.95 43.9134 31.95 41.7917C31.95 39.67 33.67 37.95 35.7917 37.95C37.9134 37.95 39.6334 39.67 39.6334 41.7917Z" fill="#F5F5F5"/>
  </g>
  <defs>
    <filter id="filter0_d_127_609" x="0.58672" y="0.268651" width="82.8266" height="82.8266" filterUnits="userSpaceOnUse" color-interpolation-filters="sRGB">
      <feFlood flood-opacity="0" result="BackgroundImageFix"/>
      <feColorMatrix in="SourceAlpha" type="matrix" values="0 0 0 0 0 0 0 0 0 0 0 0 0 0 0 0 0 0 127 0" result="hardAlpha"/>
      <feOffset dy="5.68193"/>
      <feGaussianBlur stdDeviation="9.46988"/>
      <feComposite in2="hardAlpha" operator="out"/>
      <feColorMatrix type="matrix" values="0 0 0 0 0.109804 0 0 0 0 0.682353 0 0 0 0 1 0 0 0 0.2 0"/>
      <feBlend mode="normal" in2="BackgroundImageFix" result="effect1_dropShadow_127_609"/>
      <feBlend mode="normal" in="SourceGraphic" in2="effect1_dropShadow_127_609" result="shape"/>
    </filter>
    <filter id="filter1_b_127_609" x="10.0566" y="4.0566" width="63.8868" height="63.8868" filterUnits="userSpaceOnUse" color-interpolation-filters="sRGB">
      <feFlood flood-opacity="0" result="BackgroundImageFix"/>
      <feGaussianBlur in="BackgroundImageFix" stdDeviation="4.73494"/>
      <feComposite in2="SourceAlpha" operator="in" result="effect1_backgroundBlur_127_609"/>
      <feBlend mode="normal" in="SourceGraphic" in2="effect1_backgroundBlur_127_609" result="shape"/>
    </filter>
    <linearGradient id="paint0_linear_127_609" x1="23.6667" y1="14" x2="44.2917" y2="63.5" gradientUnits="userSpaceOnUse">
      <stop stop-color="#2662FC"/>
      <stop offset="0.359375" stop-color="white"/>
      <stop offset="1" stop-color="#0DA8FF"/>
    </linearGradient>
  </defs>
</svg>