<svg width="84" height="84" viewBox="0 0 84 84" fill="none" xmlns="http://www.w3.org/2000/svg">
<g clip-path="url(#clip0_1303_356)">
<g filter="url(#filter0_d_1303_356)">
<path d="M20 29.2533C20 22.0628 20 18.4676 22.2338 16.2338C24.4676 14 28.0628 14 35.2533 14H48.7467C55.9372 14 59.5324 14 61.7662 16.2338C64 18.4676 64 22.0628 64 29.2533V42.7467C64 49.9372 64 53.5324 61.7662 55.7662C59.5324 58 55.9372 58 48.7467 58H35.2533C28.0628 58 24.4676 58 22.2338 55.7662C20 53.5324 20 49.9372 20 42.7467V29.2533Z" fill="#3F3D64" fill-opacity="0.1"/>
<path d="M20 29.2533C20 22.0628 20 18.4676 22.2338 16.2338C24.4676 14 28.0628 14 35.2533 14H48.7467C55.9372 14 59.5324 14 61.7662 16.2338C64 18.4676 64 22.0628 64 29.2533V42.7467C64 49.9372 64 53.5324 61.7662 55.7662C59.5324 58 55.9372 58 48.7467 58H35.2533C28.0628 58 24.4676 58 22.2338 55.7662C20 53.5324 20 49.9372 20 42.7467V29.2533Z" stroke="url(#paint0_linear_1303_356)" stroke-width="0.946989"/>
<path d="M42 53.75C51.8031 53.75 59.75 45.8031 59.75 36C59.75 26.1969 51.8031 18.25 42 18.25C32.1969 18.25 24.25 26.1969 24.25 36C24.25 45.8031 32.1969 53.75 42 53.75Z" fill="#22212F" stroke="#373646" stroke-width="0.5"/>
<path d="M32 15V57" stroke="#373646" stroke-width="0.5"/>
<path d="M52 15V57" stroke="#373646" stroke-width="0.5"/>
<path d="M63 26H21" stroke="#373646" stroke-width="0.5"/>
<path d="M63 46H21" stroke="#373646" stroke-width="0.5"/>
</g>
<path d="M47 32.6667V31C47 30.558 46.8244 30.1341 46.5118 29.8215C46.1992 29.509 45.7753 29.3334 45.3333 29.3334H35.3333C34.8913 29.3334 34.4673 29.509 34.1548 29.8215C33.8422 30.1341 33.6666 30.558 33.6666 31V36.8334C33.6666 37.2754 33.8422 37.6993 34.1548 38.0119C34.4673 38.3244 34.8913 38.5 35.3333 38.5H42" stroke="white" stroke-width="0.625" stroke-linecap="round" stroke-linejoin="round"/>
<path d="M40.3334 41.8333V38.5333V41.1583" stroke="white" stroke-width="0.625" stroke-linecap="round" stroke-linejoin="round"/>
<path d="M37.8334 41.8334H42" stroke="white" stroke-width="0.625" stroke-linecap="round" stroke-linejoin="round"/>
<path d="M48.6667 36H47C46.0796 36 45.3334 36.7462 45.3334 37.6667V42.6667C45.3334 43.5871 46.0796 44.3333 47 44.3333H48.6667C49.5872 44.3333 50.3334 43.5871 50.3334 42.6667V37.6667C50.3334 36.7462 49.5872 36 48.6667 36Z" stroke="white" stroke-width="0.625" stroke-linecap="round" stroke-linejoin="round"/>
</g>
<defs>
<filter id="filter0_d_1303_356" x="0.586729" y="0.268659" width="82.8265" height="82.8265" filterUnits="userSpaceOnUse" color-interpolation-filters="sRGB">
<feFlood flood-opacity="0" result="BackgroundImageFix"/>
<feColorMatrix in="SourceAlpha" type="matrix" values="0 0 0 0 0 0 0 0 0 0 0 0 0 0 0 0 0 0 127 0" result="hardAlpha"/>
<feOffset dy="5.68193"/>
<feGaussianBlur stdDeviation="9.46988"/>
<feComposite in2="hardAlpha" operator="out"/>
<feColorMatrix type="matrix" values="0 0 0 0 0.109804 0 0 0 0 0.682353 0 0 0 0 1 0 0 0 0.2 0"/>
<feBlend mode="normal" in2="BackgroundImageFix" result="effect1_dropShadow_1303_356"/>
<feBlend mode="normal" in="SourceGraphic" in2="effect1_dropShadow_1303_356" result="shape"/>
</filter>
<linearGradient id="paint0_linear_1303_356" x1="23.6667" y1="14" x2="44.2917" y2="63.5" gradientUnits="userSpaceOnUse">
<stop stop-color="#2662FC"/>
<stop offset="0.359375" stop-color="white"/>
<stop offset="1" stop-color="#0DA8FF"/>
</linearGradient>
<clipPath id="clip0_1303_356">
<rect width="84" height="84" fill="white"/>
</clipPath>
</defs>
</svg>
